<svg xmlns="http://www.w3.org/2000/svg" viewBox="0 0 680.93 168.38"><g id="Layer_2" data-name="Layer 2"><g id="Layer_1-2" data-name="Layer 1"><path d="M2.54,165.65a3,3,0,0,1-1.95-.88A3,3,0,0,1,0,162.72V10.15A3.54,3.54,0,0,1,.68,7.8a3.5,3.5,0,0,1,2.25-1Q23,4.1,42.44,2.05A375.06,375.06,0,0,1,82,0q30.63,0,51.8,3t34.34,9.86q13.17,6.82,19.12,17.75t5.95,26.73q0,19.9-9.46,32.1T152.77,107.9l36.1,55c.65,1,.84,1.85.58,2.44s-1,.87-2.34.87H166a4.22,4.22,0,0,1-2-.48,4,4,0,0,1-1.46-1.47l-32.39-51.9q-10.15,1.38-22.15,2t-26,.59q-17.37,0-32.1-1.27t-27.8-3.41v55.21a2.73,2.73,0,0,1-.69,2.15,2.86,2.86,0,0,1-2.24.39ZM169.36,57.36q0-10.53-4.1-17.56T151.11,28.68q-10.05-4.09-26.82-5.85A419.75,419.75,0,0,0,82,21.07q-5.28,0-12.39.2T54.44,22q-8,.5-16.3,1.27T22.05,25V89.75q7.8,1.17,16.09,2T54.44,93q8,.5,15.12.68t12.39.2a420.37,420.37,0,0,0,42.24-1.76q16.88-1.75,26.92-6t14.15-11.22Q169.36,67.9,169.36,57.36Z"/><path d="M224.38,141.55q3.9-4.58,12.09-4.58t12.2,4.58a17.19,17.19,0,0,1,0,22q-4,4.59-12.2,4.59t-12.09-4.59a17.5,17.5,0,0,1,0-22Zm1.17-26.43a2.48,2.48,0,0,0,2.92,2.92h16.2a2.48,2.48,0,0,0,2.92-2.92l2-109.85A3.09,3.09,0,0,0,248.86,3a3.09,3.09,0,0,0-2.24-.68h-20.1a3.09,3.09,0,0,0-2.24.68,3.09,3.09,0,0,0-.68,2.25Z"/><path d="M447.39,5.07a4.66,4.66,0,0,1,2.05,1.08,4.71,4.71,0,0,1,1.07,2l3.32,15.22a2.27,2.27,0,0,1-.3,2.25,2.28,2.28,0,0,1-2.24.29q-7.21-1.36-16.19-2.24t-18-1.47q-9-.58-17.08-.88t-13.56-.29q-23.81,0-39.7,1.27t-25.46,4.29q-9.57,3-13.56,8.2a20.23,20.23,0,0,0-4,12.78q0,10.92,8.29,16T339.88,70l60.49,3.71a124.73,124.73,0,0,1,27.31,4.49,64.28,64.28,0,0,1,19.9,9.36,40.23,40.23,0,0,1,12.2,14A39.12,39.12,0,0,1,464,119.8q0,13.06-6.05,22.34t-19.31,15.12q-13.28,5.85-34.24,8.49t-50.64,2.63q-18.33,0-35.31-1.46t-28.88-3.61a3.89,3.89,0,0,1-3.12-3.12L283.1,145a2.49,2.49,0,0,1,.3-2.34,2.11,2.11,0,0,1,2.24-.39q7.61,1.37,17,2.34t18.73,1.56q9.36.59,17.95.88t14.43.29q25,0,41.66-1.37T422,141.36q10-3.23,14.05-8.59t4.1-13.56q0-11.11-10.44-17.75t-29.56-7.61l-60.09-3.32A121.65,121.65,0,0,1,314,86.63,58.08,58.08,0,0,1,295.2,78a36,36,0,0,1-11.41-13.37A39.94,39.94,0,0,1,280,46.83q0-12.69,5.95-21.56t18.73-14.44q12.78-5.56,32.88-8.2T386.12,0q17.56,0,33.76,1.46T447.39,5.07Z"/><path d="M502,166.43a3.12,3.12,0,0,1-2.25-.68,3.08,3.08,0,0,1-.68-2.25V5.27A3.09,3.09,0,0,1,499.77,3,3.12,3.12,0,0,1,502,2.34h16.19a3.09,3.09,0,0,1,2.24.68,3.09,3.09,0,0,1,.69,2.25V163.5a2.5,2.5,0,0,1-2.93,2.93Zm176.57-22.24a3.25,3.25,0,0,1,1.76,1.27,3.94,3.94,0,0,1,.58,2.24v17.56a2.8,2.8,0,0,1-.78,2.34c-.52.39-1.3.32-2.34-.19L562.89,118q-9.95-4.29-14.93-11.8a31,31,0,0,1-5-17.46V80a31,31,0,0,1,5-17.47q5-7.5,14.93-11.8L677.81,1.37c1-.52,1.82-.59,2.34-.2a2.8,2.8,0,0,1,.78,2.34V21.07a4,4,0,0,1-.58,2.25,3.29,3.29,0,0,1-1.76,1.26L585.33,63q-11.52,4.68-16.39,9t-4.88,9.75V87a12.64,12.64,0,0,0,4.88,9.85q4.88,4.2,16.39,8.88Z"/></g></g></svg>